<?xml version="1.0" encoding="UTF-8"?>
<svg id="Coroflex" xmlns="http://www.w3.org/2000/svg" version="1.1" xmlns:xlink="http://www.w3.org/1999/xlink" viewBox="0 0 332.26 102.14">
  <defs>
    <style>
      .cls-1 {
        fill: #000;
      }

      .cls-1, .cls-2, .cls-3, .cls-4 {
        stroke-width: 0px;
      }

      .cls-2 {
        fill: none;
      }

      .cls-3 {
        fill: #d6113d;
      }

      .cls-5 {
        clip-path: url(#clippath);
      }

      .cls-4 {
        fill: #231f20;
      }
    </style>
    <clipPath id="clippath">
      <rect class="cls-2" x="81.93" y="74.61" width="72.28" height="10.09"/>
    </clipPath>
  </defs>
  <path class="cls-3" d="M146.12,29.38h.48v2.9h-.48c-2.8,0-5.22.96-7.21,2.86h0c-1.98,1.86-2.98,4.15-2.98,6.81v12.62h-2.99v-12.62c0-2.25.58-4.35,1.72-6.24,1.13-1.85,2.66-3.36,4.52-4.48.99-.6,2.09-1.06,3.26-1.37,1.17-.31,2.41-.47,3.68-.47"/>
  <path class="cls-3" d="M103.16,37.65c0,.06-.89,4.11-.93,4.2h0c-.81,1.95-1.97,3.67-3.44,5.1-1.44,1.44-3.17,2.62-5.14,3.52l-.43.21c-1.95.79-4.07,1.19-6.3,1.19s-4.47-.41-6.46-1.23c-2.02-.82-3.79-1.96-5.27-3.41-1.47-1.41-2.67-3.09-3.56-4.98-.85-1.93-1.29-4-1.29-6.15s.43-4.23,1.28-6.14c.89-1.9,2.09-3.58,3.56-4.99,1.47-1.41,3.25-2.55,5.27-3.41,1.99-.82,4.16-1.23,6.45-1.23h.49v-2.95h-.48c-2.71,0-5.28.51-7.62,1.51-2.38.97-4.47,2.31-6.2,4-1.77,1.66-3.19,3.64-4.2,5.9-1.01,2.29-1.53,4.74-1.53,7.31s.51,5.02,1.53,7.31c1.01,2.25,2.43,4.25,4.2,5.94,1.74,1.66,3.83,2.99,6.21,3.96,2.35.97,4.91,1.46,7.62,1.46h0c2.64,0,5.18-.49,7.56-1.46,2.34-.96,4.34-2.24,6.12-3.91l.35-.36s1.57-1.77,2.2-2.69"/>
  <path class="cls-1" d="M260.2,53.93c-2.42-2.31-7.26-6.91-14.5-13.82,1.88-1.77,5.34-5.03,10.37-9.79l.88-.83h-4.68l-.14.13c-1.46,1.39-4.38,4.16-8.78,8.3-1.65-1.53-4.6-4.32-8.78-8.3l-.14-.13h-4.69l.9.84c1.83,1.69,5.41,5.08,10.38,9.79-2.64,2.54-7.51,7.18-14.51,13.82l-.88.83h4.67l.14-.14c2.11-2.05,6.45-6.17,12.9-12.27,2.28,2.2,6.62,6.32,12.91,12.27l.14.13h4.67l-.88-.83Z"/>
  <path class="cls-1" d="M185.79,18.24c-1.57.66-2.96,1.57-4.13,2.69-1.17,1.12-2.12,2.47-2.81,4.01-.7,1.51-1.05,3.17-1.05,4.93v-.36h-2.8v2.91h2.8v22.16h2.98v-22.16h7.25v-2.91h-7.25v.36c0-1.35.27-2.61.81-3.76.54-1.19,1.26-2.26,2.11-3.14.95-.84,2.06-1.53,3.32-2.05h0c1.21-.52,2.54-.78,3.96-.78h.48v-2.9h-.48c-1.82,0-3.57.34-5.18,1"/>
  <rect class="cls-1" x="194.94" y="17.18" width="2.99" height="37.38"/>
  <path class="cls-3" d="M160.06,51.74c-5.38,0-9.74-4.36-9.74-9.74s4.36-9.74,9.74-9.74,9.74,4.36,9.74,9.74-4.36,9.74-9.74,9.74M160.06,29.24c-7.05,0-12.77,5.71-12.77,12.77s5.71,12.77,12.77,12.77,12.77-5.71,12.77-12.77-5.71-12.77-12.77-12.77"/>
  <path class="cls-3" d="M115.15,51.73c-5.38,0-9.74-4.36-9.74-9.74s4.36-9.74,9.74-9.74,9.74,4.36,9.74,9.74-4.36,9.74-9.74,9.74M115.15,29.22c-7.05,0-12.77,5.71-12.77,12.77s5.71,12.77,12.77,12.77,12.77-5.71,12.77-12.77-5.71-12.77-12.77-12.77"/>
  <path class="cls-1" d="M206.25,45.14c-.34-.99-.53-2.04-.53-3.14,0-5.38,4.36-9.75,9.75-9.75,3.41,0,6.4,1.75,8.15,4.4l-17.36,8.48ZM222.91,48.26c-1.78,2.13-4.45,3.48-7.45,3.48-3.21,0-6.06-1.56-7.83-3.96l17.21-8.4s0,0,0,0l2.75-1.34c-1.67-5.11-6.47-8.81-12.13-8.81-7.05,0-12.77,5.71-12.77,12.77s5.71,12.77,12.77,12.77c3.88,0,7.34-1.74,9.69-4.46l-2.24-2.04Z"/>
  <g class="cls-5">
    <path class="cls-4" d="M153.63,82.62c.31,0,.58-.26.58-.59s-.27-.58-.58-.58-.57.25-.57.58.26.59.57.59M153.63,78.05c.31,0,.58-.26.58-.59s-.27-.58-.58-.58-.57.25-.57.58.26.59.57.59M151.64,76.92l-2.12,4.8-2.12-4.8h-.79l2.52,5.63-.25.55c-.32.71-.67.94-1.17.94-.41,0-.75-.15-1.03-.43l-.35.57c.34.34.85.51,1.37.51.8,0,1.4-.35,1.88-1.46l2.82-6.32h-.75ZM143.17,81.91h-2.65v-2.82h2.65c1.32,0,2.04.43,2.04,1.41s-.72,1.42-2.04,1.42M142.91,75.71c1.2,0,1.9.46,1.9,1.36s-.7,1.36-1.9,1.36h-2.39v-2.73h2.39ZM144.46,78.69c.69-.28,1.15-.85,1.15-1.71,0-1.22-.96-1.93-2.64-1.93h-3.24v7.51h3.45c1.88,0,2.82-.73,2.82-2.01,0-1.02-.58-1.65-1.54-1.87M131.79,81.94c-1.2,0-2.1-.88-2.1-2.2s.9-2.2,2.1-2.2,2.09.88,2.09,2.2-.9,2.2-2.09,2.2M133.87,74.61v3.39c-.47-.73-1.24-1.11-2.15-1.11-1.61,0-2.81,1.16-2.81,2.86s1.2,2.87,2.81,2.87c.93,0,1.72-.41,2.18-1.17v1.11h.73v-7.96h-.76ZM125.19,77.53c1.11,0,1.91.77,2.01,1.88h-4c.1-1.11.9-1.88,2-1.88M127.92,79.74c0-1.69-1.15-2.86-2.74-2.86s-2.76,1.19-2.76,2.86,1.2,2.87,2.96,2.87c.89,0,1.67-.32,2.18-.92l-.43-.49c-.43.49-1.04.74-1.73.74-1.23,0-2.14-.78-2.22-1.96h4.72c0-.09.01-.17.01-.24M121.55,81.67c-.21.19-.53.29-.84.29-.63,0-.98-.36-.98-1.03v-3.37h1.72v-.64h-1.72v-1.23h-.76v1.23h-1.01v.64h1.01v3.41c0,1.04.59,1.64,1.65,1.64.44,0,.89-.13,1.19-.4l-.27-.55ZM114.46,76.88c-.98,0-1.74.4-2.15,1.08v-1.04h-.73v5.64h.76v-2.96c0-1.29.76-2.04,1.97-2.04,1.07,0,1.69.61,1.69,1.8v3.2h.76v-3.27c0-1.62-.94-2.41-2.32-2.41M107.3,77.53c1.1,0,1.91.77,2.01,1.88h-4c.1-1.11.9-1.88,2-1.88M110.03,79.74c0-1.69-1.15-2.86-2.73-2.86s-2.76,1.19-2.76,2.86,1.2,2.87,2.96,2.87c.89,0,1.67-.32,2.18-.92l-.43-.49c-.43.49-1.04.74-1.73.74-1.23,0-2.14-.78-2.22-1.96h4.72c0-.09.01-.17.01-.24M101.37,82.62c1.47,0,2.33-.63,2.33-1.61,0-2.17-3.66-1.02-3.66-2.54,0-.54.45-.94,1.47-.94.58,0,1.17.14,1.66.48l.33-.61c-.47-.32-1.26-.52-1.99-.52-1.44,0-2.23.69-2.23,1.61,0,2.23,3.66,1.07,3.66,2.54,0,.56-.44.92-1.51.92-.79,0-1.56-.28-2.01-.63l-.34.6c.46.4,1.36.7,2.29.7M95.57,77.53c1.1,0,1.91.77,2.01,1.88h-4c.1-1.11.9-1.88,2-1.88M98.31,79.74c0-1.69-1.15-2.86-2.73-2.86s-2.76,1.19-2.76,2.86,1.2,2.87,2.96,2.87c.89,0,1.67-.32,2.18-.92l-.43-.49c-.43.49-1.04.74-1.73.74-1.23,0-2.14-.78-2.22-1.96h4.72c0-.09.01-.17.01-.24M89.95,78.03v-1.1h-.73v5.64h.76v-2.87c0-1.33.72-2.08,1.9-2.08.05,0,.12.01.18.01v-.74c-1.04,0-1.76.4-2.11,1.15M84.71,79.5h-2v-3.76h2c1.5,0,2.3.69,2.3,1.89s-.79,1.87-2.3,1.87M84.74,75.06h-2.81v7.51h.79v-2.37h2.02c1.91,0,3.07-.96,3.07-2.56s-1.16-2.57-3.07-2.57"/>
  </g>
  <g>
    <path class="cls-1" d="M162.71,78.88c0,.46.1.88.3,1.25s.46.7.79.96c.32.27.7.47,1.13.62.43.15.87.22,1.33.22.62,0,1.16-.14,1.62-.43.46-.29.88-.67,1.26-1.14l1.51,1.15c-1.11,1.43-2.66,2.15-4.65,2.15-.83,0-1.58-.14-2.25-.42-.67-.28-1.24-.67-1.71-1.16-.47-.49-.82-1.08-1.07-1.75-.25-.67-.38-1.4-.38-2.18s.14-1.51.41-2.18c.27-.67.65-1.26,1.13-1.75.48-.49,1.05-.88,1.72-1.16s1.39-.42,2.17-.42c.93,0,1.72.16,2.36.49.64.33,1.17.75,1.58,1.27.41.52.71,1.12.9,1.77.18.66.28,1.33.28,2.01v.71h-8.42ZM169,77.29c-.01-.44-.09-.85-.21-1.22-.13-.37-.31-.69-.56-.96s-.56-.49-.94-.64c-.38-.15-.82-.23-1.32-.23s-.93.09-1.34.28c-.41.18-.75.42-1.03.72-.28.3-.5.62-.65.99-.16.36-.23.72-.23,1.07h6.29Z"/>
    <path class="cls-1" d="M182.83,83.4h-1.99v-1.62h-.04c-.25.56-.69,1.02-1.31,1.36s-1.34.52-2.15.52c-.52,0-1-.08-1.46-.23s-.86-.39-1.21-.72c-.35-.32-.62-.74-.83-1.25-.21-.51-.31-1.11-.31-1.81v-6.76h1.99v6.21c0,.49.07.91.2,1.25s.31.63.53.84c.22.21.48.37.76.47s.59.14.9.14c.41,0,.8-.07,1.15-.2s.66-.34.93-.63c.27-.29.47-.65.62-1.1s.22-.97.22-1.57v-5.41h1.99v10.5Z"/>
    <path class="cls-1" d="M185.84,72.9h1.99v1.62h.04c.13-.28.31-.53.53-.76.22-.23.47-.42.74-.59.27-.16.57-.29.9-.39.32-.1.65-.14.97-.14s.62.04.89.13l-.09,2.15c-.16-.04-.33-.08-.49-.11-.16-.03-.33-.04-.49-.04-.98,0-1.72.27-2.24.82-.52.55-.78,1.4-.78,2.55v5.27h-1.99v-10.5Z"/>
    <path class="cls-1" d="M193.16,78.15c0-.77.14-1.48.43-2.15.29-.66.68-1.25,1.19-1.75.5-.5,1.09-.9,1.77-1.19.68-.29,1.41-.43,2.19-.43s1.51.14,2.19.43c.68.29,1.27.68,1.77,1.19.5.5.9,1.09,1.19,1.75.29.66.43,1.38.43,2.15s-.14,1.49-.43,2.16c-.29.67-.68,1.26-1.19,1.75-.5.5-1.09.89-1.77,1.17-.68.29-1.41.43-2.19.43s-1.51-.14-2.19-.43c-.68-.29-1.27-.68-1.77-1.17s-.9-1.08-1.19-1.75c-.29-.67-.43-1.39-.43-2.16ZM195.28,78.15c0,.53.08,1.02.24,1.47.16.45.39.83.69,1.15s.66.57,1.09.75.91.28,1.44.28,1.01-.09,1.44-.28c.43-.18.79-.44,1.09-.75.3-.32.52-.7.69-1.15.16-.45.24-.94.24-1.47s-.08-1.02-.24-1.47c-.16-.45-.39-.83-.69-1.15-.3-.32-.66-.57-1.09-.75-.43-.18-.91-.28-1.44-.28s-1.01.09-1.44.28-.79.44-1.09.75c-.3.32-.52.7-.69,1.15s-.24.94-.24,1.47Z"/>
    <path class="cls-1" d="M212.45,74.63h-2.86v4.76c0,.3,0,.59.02.88.01.29.07.55.17.78.1.23.24.41.44.55s.49.21.88.21c.24,0,.48-.02.73-.07.25-.04.48-.12.69-.24v1.82c-.24.13-.54.22-.92.28s-.67.08-.88.08c-.77,0-1.36-.11-1.78-.32-.42-.21-.73-.49-.93-.83-.2-.34-.32-.72-.35-1.14-.04-.42-.06-.85-.06-1.27v-5.47h-2.3v-1.73h2.3v-2.95h1.99v2.95h2.86v1.73Z"/>
    <path class="cls-1" d="M216.53,78.88c0,.46.1.88.3,1.25s.46.7.79.96c.33.27.7.47,1.13.62.43.15.87.22,1.33.22.62,0,1.16-.14,1.62-.43.46-.29.88-.67,1.26-1.14l1.51,1.15c-1.11,1.43-2.66,2.15-4.65,2.15-.83,0-1.58-.14-2.25-.42-.67-.28-1.24-.67-1.71-1.16-.47-.49-.82-1.08-1.07-1.75-.25-.67-.38-1.4-.38-2.18s.14-1.51.41-2.18c.27-.67.65-1.26,1.13-1.75.48-.49,1.05-.88,1.72-1.16s1.39-.42,2.17-.42c.93,0,1.72.16,2.36.49.64.33,1.17.75,1.58,1.27.41.52.71,1.12.9,1.77s.28,1.33.28,2.01v.71h-8.42ZM222.82,77.29c-.01-.44-.09-.85-.21-1.22-.13-.37-.31-.69-.56-.96-.25-.27-.56-.49-.94-.64s-.82-.23-1.32-.23-.93.09-1.34.28-.75.42-1.03.72c-.28.3-.5.62-.65.99-.16.36-.23.72-.23,1.07h6.29Z"/>
    <path class="cls-1" d="M234.86,75.69c-.37-.38-.76-.68-1.16-.88-.41-.2-.89-.3-1.45-.3s-1.02.1-1.43.3c-.41.2-.75.47-1.02.82-.27.35-.48.75-.62,1.2-.14.45-.21.92-.21,1.41s.08.95.24,1.38c.16.44.39.82.69,1.14.3.33.65.58,1.06.77.41.18.88.28,1.4.28.56,0,1.04-.1,1.44-.3s.77-.49,1.11-.88l1.42,1.42c-.52.58-1.12.99-1.81,1.24-.69.25-1.41.38-2.18.38-.81,0-1.56-.13-2.23-.4s-1.25-.64-1.74-1.12c-.49-.48-.86-1.06-1.13-1.73-.27-.67-.4-1.41-.4-2.23s.13-1.56.4-2.24c.27-.68.64-1.26,1.12-1.75.48-.49,1.06-.87,1.73-1.14.67-.27,1.42-.41,2.25-.41.77,0,1.5.14,2.2.41.7.27,1.31.69,1.83,1.25l-1.51,1.37Z"/>
    <path class="cls-1" d="M238.02,66.65h1.99v7.87h.04c.25-.56.69-1.02,1.31-1.36.62-.35,1.34-.52,2.15-.52.5,0,.99.08,1.45.23.47.16.87.4,1.22.72s.62.74.83,1.25c.21.51.31,1.11.31,1.81v6.76h-1.99v-6.2c0-.49-.07-.91-.2-1.25s-.31-.63-.53-.84-.48-.37-.76-.47c-.29-.1-.59-.14-.9-.14-.41,0-.8.07-1.15.2-.35.13-.66.34-.93.63-.27.29-.47.65-.62,1.1-.15.44-.22.97-.22,1.57v5.41h-1.99v-16.75Z"/>
  </g>
</svg>